<svg width="26" height="26" viewBox="0 0 26 26" fill="none" xmlns="http://www.w3.org/2000/svg">
<path d="M9.73153 24.9998C10.334 24.9998 10.8224 24.4874 10.8224 23.8554C10.8224 23.2233 10.334 22.7109 9.73153 22.7109C9.12904 22.7109 8.64062 23.2233 8.64062 23.8554C8.64062 24.4874 9.12904 24.9998 9.73153 24.9998Z" stroke="#1E1E1E" stroke-linecap="round" stroke-linejoin="round"/>
<path d="M21.7315 24.9998C22.334 24.9998 22.8224 24.4874 22.8224 23.8554C22.8224 23.2233 22.334 22.7109 21.7315 22.7109C21.129 22.7109 20.6406 23.2233 20.6406 23.8554C20.6406 24.4874 21.129 24.9998 21.7315 24.9998Z" stroke="#1E1E1E" stroke-linecap="round" stroke-linejoin="round"/>
<path d="M1 1H5.36364L8.28727 16.3009C8.38703 16.827 8.66026 17.2996 9.05914 17.6359C9.45802 17.9723 9.95713 18.151 10.4691 18.1407H21.0727C21.5847 18.151 22.0838 17.9723 22.4827 17.6359C22.8816 17.2996 23.1548 16.827 23.2545 16.3009L25 6.71356H6.45455" stroke="#1E1E1E" stroke-linecap="round" stroke-linejoin="round"/>
</svg>
